<svg width="170" height="170" viewBox="0 0 170 170" fill="none" xmlns="http://www.w3.org/2000/svg">
<path d="M154.22 84.9763C154.22 75.8823 152.429 66.8773 148.949 58.4755C145.468 50.0737 140.368 42.4396 133.937 36.0092C127.507 29.5787 119.873 24.4778 111.471 20.9977C103.069 17.5175 94.064 15.7263 84.97 15.7263" stroke="#A637B0" stroke-width="30"/>
<path d="M36.0028 133.943C45.6876 143.628 58.0268 150.224 71.46 152.896C84.8932 155.568 98.817 154.196 111.471 148.955C124.125 143.714 134.94 134.838 142.549 123.45C150.159 112.061 154.22 98.6727 154.22 84.9763" stroke="#F87111" stroke-width="30"/>
<path d="M20.1823 60.5199C15.4492 73.0582 14.4561 86.7005 17.3234 99.792C20.1907 112.884 26.7951 124.862 36.3356 134.274" stroke="#64D9E8" stroke-width="30"/>
<path d="M84.97 15.7263C70.6493 15.7263 56.6808 20.1661 44.9881 28.4342C33.2954 36.7023 24.4536 48.3921 19.6802 61.8938" stroke="#3A3A3A" stroke-width="30"/>
</svg>
