<svg width="13" height="13" viewBox="0 0 13 13" fill="none" xmlns="http://www.w3.org/2000/svg">
<g clip-path="url(#clip0_86_1267)">
<path d="M12.0083 2.15539L10.5728 0.719844C10.4333 0.579008 10.2411 0.5 10.0419 0.5H6.20753C5.37902 0.5 4.70753 1.17172 4.70753 2L4.708 8C4.72863 8.82969 5.40128 9.5 6.22863 9.5H10.7286C11.5536 9.5 12.2286 8.825 12.2286 8V2.68555C12.2286 2.4868 12.1489 2.29602 12.0083 2.15539ZM11.1036 8C11.1036 8.20709 10.9357 8.375 10.7286 8.375H6.20753C6.00039 8.375 5.83253 8.20709 5.83253 8V2.00305C5.83253 1.79595 6.00044 1.62805 6.20753 1.62805H9.20753L9.22863 2.75C9.22863 3.16414 9.56449 3.5 9.97863 3.5H11.0825V8H11.1036ZM6.60363 11C6.60363 11.2071 6.43572 11.375 6.22863 11.375H1.70753C1.50039 11.375 1.33253 11.2071 1.33253 11L1.35316 5.00234C1.35316 4.79525 1.52107 4.62734 1.72816 4.62734H3.97863V3.5H1.72839C0.899878 3.5 0.228394 4.17148 0.228394 5L0.228628 11C0.228675 11.8273 0.900347 12.5 1.72863 12.5H6.22863C7.05363 12.5 7.72863 11.825 7.72863 11V10.25H6.62472L6.60363 11Z" fill="#6B7280"/>
</g>
<defs>
<clipPath id="clip0_86_1267">
<rect width="12" height="12" fill="white" transform="translate(0.228577 0.5)"/>
</clipPath>
</defs>
</svg>
