<svg width="126" height="32" viewBox="0 0 126 32" fill="none" xmlns="http://www.w3.org/2000/svg">
<path d="M49.2642 23V8.45455H58.8949V10.9901H52.3395V14.456H58.2557V16.9915H52.3395V23H49.2642ZM63.9322 8.45455V23H60.9066V8.45455H63.9322ZM68.2237 27.0909C67.8402 27.0909 67.4804 27.0601 67.1442 26.9986C66.8127 26.9418 66.5381 26.8684 66.3203 26.7784L67.0021 24.5199C67.3572 24.6288 67.6768 24.688 67.9609 24.6974C68.2498 24.7069 68.4983 24.6406 68.7067 24.4986C68.9197 24.3565 69.0926 24.1151 69.2251 23.7741L69.4027 23.3125L65.4893 12.0909H68.6712L70.9297 20.1023H71.0433L73.3232 12.0909H76.5263L72.2862 24.179C72.0826 24.7661 71.8056 25.2775 71.4553 25.7131C71.1096 26.1534 70.6716 26.492 70.1413 26.7287C69.611 26.9702 68.9718 27.0909 68.2237 27.0909ZM78.1314 23V8.45455H83.9553C85.0253 8.45455 85.9179 8.61316 86.6328 8.9304C87.3478 9.24763 87.8852 9.68797 88.245 10.2514C88.6049 10.8101 88.7848 11.4541 88.7848 12.1832C88.7848 12.7514 88.6712 13.2509 88.4439 13.6818C88.2166 14.108 87.9041 14.4583 87.5064 14.733C87.1134 15.0028 86.6636 15.1946 86.157 15.3082V15.4503C86.7109 15.474 87.2294 15.6302 87.7124 15.919C88.2 16.2079 88.5954 16.6127 88.8984 17.1335C89.2015 17.6496 89.353 18.2652 89.353 18.9801C89.353 19.7519 89.1612 20.4408 88.7777 21.0469C88.3989 21.6482 87.8378 22.1241 87.0945 22.4744C86.3511 22.8248 85.4349 23 84.3459 23H78.1314ZM81.2067 20.4858H83.7138C84.5708 20.4858 85.1958 20.3224 85.5888 19.9957C85.9818 19.6643 86.1783 19.224 86.1783 18.6747C86.1783 18.2723 86.0812 17.9171 85.8871 17.6094C85.6929 17.3016 85.416 17.0601 85.0561 16.8849C84.701 16.7098 84.2772 16.6222 83.7848 16.6222H81.2067V20.4858ZM81.2067 14.5412H83.4865C83.9079 14.5412 84.282 14.4678 84.6087 14.321C84.9401 14.1695 85.2005 13.9564 85.3899 13.6818C85.584 13.4072 85.6811 13.0781 85.6811 12.6946C85.6811 12.169 85.4941 11.7453 85.12 11.4233C84.7507 11.1013 84.2251 10.9403 83.5433 10.9403H81.2067V14.5412ZM94.408 23.206C93.712 23.206 93.0917 23.0852 92.5472 22.8438C92.0027 22.5975 91.5719 22.2353 91.2546 21.7571C90.9421 21.2741 90.7859 20.6728 90.7859 19.9531C90.7859 19.3471 90.8971 18.8381 91.1197 18.4261C91.3422 18.0142 91.6452 17.6828 92.0288 17.4318C92.4123 17.1809 92.8479 16.9915 93.3356 16.8636C93.828 16.7358 94.3441 16.6458 94.8839 16.5938C95.5183 16.5275 96.0297 16.4659 96.418 16.4091C96.8062 16.3475 97.088 16.2576 97.2631 16.1392C97.4383 16.0208 97.5259 15.8456 97.5259 15.6136V15.571C97.5259 15.1212 97.3839 14.7732 97.0998 14.527C96.8204 14.2808 96.4227 14.1577 95.9066 14.1577C95.3621 14.1577 94.9289 14.2784 94.6069 14.5199C94.2849 14.7566 94.0719 15.0549 93.9677 15.4148L91.1694 15.1875C91.3114 14.5246 91.5908 13.9517 92.0075 13.4688C92.4241 12.9811 92.9615 12.607 93.6197 12.3466C94.2826 12.0814 95.0496 11.9489 95.9208 11.9489C96.5269 11.9489 97.1069 12.0199 97.6609 12.1619C98.2196 12.304 98.7144 12.5241 99.1452 12.8224C99.5808 13.1207 99.9241 13.5043 100.175 13.973C100.426 14.437 100.551 14.9934 100.551 15.642V23H97.6822V21.4872H97.5969C97.4218 21.8281 97.1874 22.1288 96.8938 22.3892C96.6003 22.6449 96.2475 22.8461 95.8356 22.9929C95.4237 23.1349 94.9478 23.206 94.408 23.206ZM95.2745 21.1179C95.7196 21.1179 96.1126 21.0303 96.4535 20.8551C96.7944 20.6752 97.0619 20.4337 97.256 20.1307C97.4502 19.8277 97.5472 19.4844 97.5472 19.1009V17.9432C97.4525 18.0047 97.3223 18.0616 97.1566 18.1136C96.9956 18.161 96.8133 18.206 96.6097 18.2486C96.4061 18.2865 96.2025 18.322 95.9989 18.3551C95.7953 18.3835 95.6107 18.4096 95.445 18.4332C95.0898 18.4853 94.7797 18.5682 94.5146 18.6818C94.2494 18.7955 94.0434 18.9493 93.8967 19.1435C93.7499 19.3329 93.6765 19.5696 93.6765 19.8537C93.6765 20.2656 93.8256 20.5805 94.1239 20.7983C94.427 21.0114 94.8105 21.1179 95.2745 21.1179ZM105.924 16.6932V23H102.899V12.0909H105.782V14.0156H105.91C106.152 13.3812 106.556 12.8793 107.125 12.5099C107.693 12.1359 108.382 11.9489 109.191 11.9489C109.949 11.9489 110.609 12.1146 111.173 12.446C111.736 12.7775 112.174 13.2509 112.487 13.8665C112.799 14.4773 112.956 15.2064 112.956 16.054V23H109.93V16.5938C109.935 15.9261 109.764 15.4053 109.419 15.0312C109.073 14.6525 108.597 14.4631 107.991 14.4631C107.584 14.4631 107.224 14.5507 106.912 14.7259C106.604 14.901 106.362 15.1567 106.187 15.4929C106.017 15.8243 105.929 16.2244 105.924 16.6932ZM118.082 19.8608L118.089 16.2315H118.529L122.023 12.0909H125.496L120.802 17.5739H120.085L118.082 19.8608ZM115.34 23V8.45455H118.366V23H115.34ZM122.158 23L118.948 18.2486L120.965 16.1108L125.702 23H122.158Z" fill="#1F2937"/>
<rect width="32" height="32" fill="#0F1378"/>
<rect x="0.5" y="0.5" width="13" height="13" fill="white" stroke="#121AD9"/>
<path d="M16.1378 23V9.90909H24.8054V12.1911H18.9055V15.3104H24.2301V17.5923H18.9055V23H16.1378Z" fill="white"/>
</svg>
