<svg width="25" height="25" viewBox="0 0 25 25" fill="none" xmlns="http://www.w3.org/2000/svg">
<path d="M12.41 13.5C12.9623 13.5 13.41 13.0523 13.41 12.5C13.41 11.9477 12.9623 11.5 12.41 11.5C11.8577 11.5 11.41 11.9477 11.41 12.5C11.41 13.0523 11.8577 13.5 12.41 13.5Z" stroke="#6B7280" stroke-width="2" stroke-linecap="round" stroke-linejoin="round"/>
<path d="M12.41 6.5C12.9623 6.5 13.41 6.05228 13.41 5.5C13.41 4.94772 12.9623 4.5 12.41 4.5C11.8577 4.5 11.41 4.94772 11.41 5.5C11.41 6.05228 11.8577 6.5 12.41 6.5Z" stroke="#6B7280" stroke-width="2" stroke-linecap="round" stroke-linejoin="round"/>
<path d="M12.41 20.5C12.9623 20.5 13.41 20.0523 13.41 19.5C13.41 18.9477 12.9623 18.5 12.41 18.5C11.8577 18.5 11.41 18.9477 11.41 19.5C11.41 20.0523 11.8577 20.5 12.41 20.5Z" stroke="#6B7280" stroke-width="2" stroke-linecap="round" stroke-linejoin="round"/>
</svg>
